# xmcd
#
# Track frame offsets:
#	150
#	20404
#	43658
#	66145
#	81293
#	111016
#	143943
#	170803
#	204163
#	232959
# Disc length: 3599 seconds
# Revision: 1
# Processed by: cddbd v1.5.1PL2 Copyright (c) Steve Scherf et al.
#
# Submitted via: libkcddb 0.31
#
DISCID=830e0d0a
DTITLE=Various Artist - jazzwise presents The ESC Records Music Sampler
DYEAR=2001
DGENRE=Jazz
TTITLE0=Bill Evans and Les McCann - Lose My Number
TTITLE1=Maceo Parker - Rabbits In The Pea Patch
TTITLE2=Dean Brown - Back In The Day
TTITLE3=Joe Zawinul - You Want Some Tea, Grandpa ?
TTITLE4=Boomish - Fome
TTITLE5=Randy Brecker - I Talk To The Trees
TTITLE6=Victor Bailey - Sweet Tooth
TTITLE7=Tribal Tech - Saturn 5
TTITLE8=Jim Beard - Trip
TTITLE9=Joe Zawinul  and The Zawinul Syndicate - Zansa II
EXTD=
EXTT0=
EXTT1=
EXTT2=
EXTT3=
EXTT4=
EXTT5=
EXTT6=
EXTT7=
EXTT8=
EXTT9=
PLAYORDER=
